<svg width="143" height="85" viewBox="0 0 143 85" fill="none" xmlns="http://www.w3.org/2000/svg">
<path fill-rule="evenodd" clip-rule="evenodd" d="M0.296822 0.220749C0.276553 0.343692 0.234841 0.611609 0.203997 0.816118C0.0518308 1.82348 0.629062 2.15094 3.13187 2.4784C6.35321 2.89992 7.74474 3.66049 8.63218 5.485C9.27727 6.81179 9.29666 7.13984 9.44001 19.1982L9.58689 31.5521L14.93 31.6331L20.2732 31.7143L20.383 19.5768C20.505 6.15242 20.5505 5.78508 22.3277 3.98438C23.7862 2.50637 25.7917 2.0911 30.2968 2.33401C33.4679 2.50518 36.2568 3.12496 38.0176 4.05046C40.7812 5.50257 43.1052 8.69197 44.1151 12.4184C45.0924 16.0239 45.1136 23.0306 44.1583 26.6061C43.7914 27.979 43.2476 29.613 42.9501 30.2375C42.6522 30.8618 42.4815 31.4467 42.5705 31.5369C42.6595 31.6271 44.5381 31.7009 46.7448 31.7009C51.3445 31.7009 51.0222 31.8638 53.1819 28.4496C55.0866 25.4385 55.935 22.3902 55.9635 18.4539C55.992 14.5382 55.3228 11.9617 53.5635 9.21322C50.4162 4.29635 45.4173 1.48591 37.6407 0.261529C35.845 -0.0212712 0.342942 -0.0599682 0.296822 0.220749ZM71.2154 0.347861C71.1422 0.54076 71.1261 1.00753 71.1792 1.38529C71.2665 2.00477 71.5121 2.10628 73.6709 2.41617C76.8937 2.87907 78.0232 3.29583 78.8927 4.34309C80.249 5.97648 80.3256 6.72368 80.454 19.5768L80.5753 31.7143L85.9132 31.6331L91.2514 31.5521L91.2751 20.2401C91.3057 5.79252 91.5657 4.4321 94.5641 3.02851C95.8049 2.44773 96.4171 2.38164 100.358 2.40426C105.174 2.43225 107.093 2.79781 110.398 4.3166C114.344 6.1292 117.252 10.281 118.296 15.5893C118.965 18.9916 118.757 26.4721 117.912 29.3864C117.593 30.4873 117.401 31.4586 117.486 31.5446C117.571 31.6307 119.798 31.7009 122.434 31.7009H127.228L128.073 29.9892C129.908 26.2682 130.323 24.4514 130.299 20.2401C130.28 17.0295 130.163 16.0403 129.612 14.4352C126.943 6.66116 119.974 1.86546 109.024 0.26659C106.265 -0.136178 71.3705 -0.0611584 71.2154 0.347861ZM8.82929 38.9198C8.75644 40.0855 8.91624 46.7048 9.02405 46.99C9.11189 47.2216 9.8595 47.2817 11.3797 47.179C13.2641 47.0519 13.693 46.921 14.1671 46.3277C14.908 45.4004 14.8819 44.0748 14.1081 43.3443C13.5279 42.7965 13.5185 42.7162 13.9612 42.0758C14.6771 41.0399 14.557 39.8798 13.6598 39.1648C13.0476 38.6766 12.4645 38.5477 10.8691 38.5477C9.4641 38.5477 8.84545 38.6605 8.82929 38.9198ZM19.2624 38.9356C19.1816 39.1487 19.1528 41.0578 19.1983 43.1776L19.2809 47.0317L22.145 47.1168C23.9795 47.1716 25.0091 47.0912 25.0091 46.8936C25.0091 46.7111 24.194 46.5852 23.0116 46.5852C20.7053 46.5852 20.309 46.317 20.309 44.7571C20.309 43.4363 20.6101 43.1984 22.3653 43.1341C24.3121 43.063 24.4216 43.0406 24.4216 42.7153C24.4216 42.5474 23.5912 42.4176 22.5178 42.4176C20.7535 42.4176 20.601 42.3652 20.4371 41.7037C20.3399 41.3111 20.3043 40.6746 20.3581 40.2897C20.4477 39.6491 20.6283 39.5771 22.4893 39.4407C23.7425 39.349 24.5688 39.149 24.6434 38.9198C24.8203 38.3753 19.4686 38.3908 19.2624 38.9356ZM29.0239 38.7462C28.5577 39.2184 28.9152 39.4407 30.1411 39.4407H31.4542L31.5364 43.2362C31.6137 46.8055 31.6536 47.0317 32.2062 47.0317C32.7617 47.0317 32.7946 46.8284 32.8078 43.3106L32.8216 39.5896L33.5422 39.5062C34.9199 39.347 35.5844 39.1299 35.5844 38.8397C35.5844 38.5131 29.3418 38.4241 29.0239 38.7462ZM39.6071 38.7379C39.2176 39.1326 39.771 39.4407 40.8697 39.4407C42.2935 39.4407 42.4048 39.7414 42.3367 43.397C42.2656 47.2064 42.2618 47.1805 42.9283 47.1805C43.4856 47.1805 43.5158 46.982 43.5158 43.3276V39.475L44.7414 39.3833C45.4156 39.333 46.0216 39.1246 46.088 38.9198C46.1796 38.6373 45.4358 38.5477 43.0018 38.5477C41.238 38.5477 39.7105 38.6334 39.6071 38.7379ZM50.4788 38.7355C50.0919 39.1273 50.2396 46.7864 50.6394 47.0755C51.1136 47.4181 55.8536 47.2225 55.8536 46.8602C55.8536 46.709 55.0208 46.5852 54.003 46.5852C51.8535 46.5852 51.4473 46.2946 51.4473 44.7571C51.4473 43.4833 51.6682 43.2707 52.9933 43.2699C54.3663 43.269 55.5599 43.0064 55.5599 42.7051C55.5599 42.562 54.6674 42.4051 53.577 42.3568L51.5942 42.2687V40.9292V39.5896L53.5814 39.4407C54.6745 39.3589 55.5675 39.1579 55.566 38.9942C55.5631 38.6551 50.7972 38.4125 50.4788 38.7355ZM60.7497 38.7462C60.6419 38.8552 60.5537 40.7976 60.5537 43.0627C60.5537 46.982 60.5819 47.1805 61.1413 47.1805C61.6577 47.1805 61.7288 46.982 61.7288 45.5433C61.7288 43.9551 61.7532 43.906 62.5366 43.9075C63.1943 43.9087 63.5357 44.2129 64.3726 45.5433C64.9754 46.5015 65.6134 47.1782 65.9148 47.179C66.5323 47.1808 66.5913 46.497 66.0153 46.0124C65.7879 45.8213 65.389 45.2105 65.129 44.6553C64.6693 43.6735 64.6766 43.625 65.3957 42.8963C66.6263 41.6493 66.3223 39.7375 64.7592 38.8939C64.0747 38.5248 61.0772 38.414 60.7497 38.7462ZM76.545 38.9356C76.4642 39.1487 76.4354 41.056 76.481 43.174C76.5535 46.5652 76.6249 47.0362 77.0776 47.1243C77.5167 47.2097 77.5917 46.9859 77.5917 45.59C77.5917 43.0648 78.594 43.0999 80.2296 45.6829C80.8209 46.6167 81.3876 47.1805 81.7348 47.1805C82.4804 47.1805 82.4413 46.9659 81.4105 45.3944C80.9273 44.6577 80.5313 43.9605 80.5304 43.845C80.5298 43.7298 80.8597 43.3005 81.2636 42.8912C82.5638 41.5736 82.1302 39.5187 80.4126 38.857C79.2528 38.4101 76.7245 38.4616 76.545 38.9356ZM86.8074 38.9198C86.6667 39.1246 86.5918 41.0667 86.6411 43.2362L86.7307 47.1805H89.3411C92.5313 47.1805 93.1943 46.6483 90.1592 46.5238L88.02 46.4363V44.8095V43.1826L89.7576 43.1722C90.8786 43.1654 91.5389 43.0296 91.618 42.7897C91.7081 42.517 91.2237 42.4176 89.807 42.4176H87.8732V40.9428V39.4678L89.8325 39.38C91.073 39.324 91.8365 39.1552 91.9135 38.9198C92.004 38.6417 91.4065 38.5477 89.5493 38.5477C87.8934 38.5477 86.9784 38.6718 86.8074 38.9198ZM99.1431 39.0466C99.0415 39.3452 98.3811 41.0762 97.6752 42.893C96.9696 44.71 96.3921 46.4292 96.3921 46.7135C96.3921 47.5375 97.0804 47.0865 97.6429 45.8939C98.1529 44.8125 98.1808 44.7991 99.9219 44.7991H101.684L102.155 45.9898C102.471 46.7915 102.806 47.1805 103.181 47.1805C103.486 47.1805 103.736 47.0915 103.736 46.9826C103.736 46.6212 101.928 41.997 101.137 40.3338C100.331 38.6406 99.4704 38.0848 99.1431 39.0466ZM108.109 38.8981C108.09 39.1148 108.088 40.6984 108.104 42.4176C108.12 44.1367 108.135 45.9118 108.138 46.3619L108.142 47.1805H110.786C112.353 47.1805 113.43 47.0594 113.43 46.8829C113.43 46.7129 112.552 46.5852 111.382 46.5852H109.334L109.252 42.6444C109.18 39.1669 109.11 38.692 108.656 38.6039C108.374 38.5489 108.127 38.6813 108.109 38.8981ZM116.368 38.9942C116.368 39.3246 116.709 39.4407 117.681 39.4407H118.994L119.076 43.2362C119.156 46.9165 119.178 47.0347 119.819 47.127C120.476 47.2213 120.48 47.1957 120.48 43.3315V39.4407H121.624C122.369 39.4407 122.826 39.2853 122.937 38.9942C123.081 38.6132 122.611 38.5477 119.737 38.5477C116.938 38.5477 116.368 38.6233 116.368 38.9942ZM126.943 38.8489C126.943 39.0147 127.571 40.1069 128.338 41.2766C129.489 43.0311 129.74 43.6554 129.77 44.8452C129.828 47.1162 129.847 47.1805 130.468 47.1805C130.991 47.1805 131.055 46.982 131.055 45.3578C131.055 43.7214 131.191 43.308 132.383 41.3194C133.587 39.3095 133.794 38.5477 133.136 38.5477C133.007 38.5477 132.412 39.3514 131.814 40.3338C131.215 41.3161 130.635 42.1163 130.523 42.1116C130.412 42.1071 129.793 41.3033 129.148 40.3254C128.458 39.28 127.762 38.5477 127.459 38.5477C127.175 38.5477 126.943 38.6831 126.943 38.8489ZM12.6346 39.7092C13.2245 40.0876 13.1317 41.5579 12.4877 42.0354C12.1849 42.2601 11.5404 42.4045 11.0557 42.3563C10.227 42.2741 10.1691 42.1842 10.0848 40.8547L9.99521 39.4407L11.113 39.4452C11.7278 39.4479 12.4125 39.5667 12.6346 39.7092ZM64.496 40.0099C65.6766 41.3319 64.2921 43.3559 62.5163 42.9043C61.7984 42.7218 61.7288 42.5768 61.7288 41.2709C61.7288 40.4826 61.8169 39.7482 61.9247 39.6393C62.3401 39.2181 64.003 39.458 64.496 40.0099ZM80.4244 40.2079C81.1226 41.2882 80.682 42.4572 79.4406 42.818C77.9177 43.2603 77.5917 42.9552 77.5917 41.0872V39.4407H78.7599C79.6911 39.4407 80.0287 39.5964 80.4244 40.2079ZM100.715 42.4176C101.234 43.8861 101.224 43.906 99.9172 43.906C98.5427 43.906 98.4205 43.472 99.2489 41.5343C99.8082 40.2254 99.9748 40.3257 100.715 42.4176ZM13.1751 43.7944C14.1172 45.1 13.2897 46.3664 11.4675 46.4072L10.1744 46.4363L10.0825 45.1372C9.94234 43.157 10.1239 42.9079 11.5648 43.1034C12.2445 43.196 12.9669 43.5059 13.1751 43.7944ZM9.62097 55.0867C9.52138 55.3496 9.44001 59.6997 9.44001 64.7538C9.44001 74.9227 9.26523 76.4519 7.92569 77.9981C7.02386 79.0388 4.77691 79.9259 3.04227 79.9259C1.45716 79.9259 0.355278 80.2807 0.177555 80.8484C-0.282762 82.3181 -0.79948 82.2746 18.6984 82.4068C29.0777 82.4773 38.0431 82.4092 39.5501 82.2484C49.257 81.2128 56.9546 76.2194 60.2532 68.8184C61.5919 65.8147 62.1133 62.8078 61.967 58.9337C61.8851 56.7639 61.7023 55.3957 61.4544 55.093C61.1292 54.6959 60.2359 54.6227 55.7097 54.6227H50.3501L50.3322 59.0135C50.3057 65.5843 49.114 69.8373 46.3626 73.1827C42.8208 77.489 37.1639 79.655 29.2686 79.7279C25.6683 79.7613 24.9915 79.6889 23.8341 79.1451C22.284 78.4166 21.6938 77.8037 20.9926 76.1938C20.5478 75.173 20.4574 73.6513 20.3205 64.8928L20.1621 54.7715L14.982 54.6902C10.4511 54.6194 9.77901 54.6691 9.62097 55.0867ZM80.7252 54.8212C80.6173 54.9302 80.5266 58.9156 80.5234 63.6773C80.5172 72.8853 80.3116 75.4305 79.432 77.1896C78.6944 78.6655 76.8564 79.5737 73.9358 79.9056C72.6824 80.0482 71.5279 80.2956 71.3702 80.4555C71.2121 80.6156 71.1264 81.1089 71.1795 81.5518L71.2759 82.3574L85.8168 82.3571H100.358L100.447 81.3307C100.528 80.3891 100.458 80.2885 99.602 80.1149C99.0888 80.011 98.2437 79.9259 97.724 79.9259C96.202 79.9259 94.0291 79.1317 93.1103 78.2395C91.5328 76.7082 91.3442 75.2775 91.3377 64.8074C91.3348 59.6276 91.2669 55.2174 91.187 55.0064C91.076 54.7138 89.8399 54.6227 85.9814 54.6227C83.198 54.6227 80.8327 54.712 80.7252 54.8212ZM114.129 55.0549C114.039 55.2927 114.044 55.6157 114.14 55.7732C114.236 55.9304 115.22 60.19 116.328 65.2387C118.623 75.6993 119.45 78.0767 121.669 80.5992C124.2 83.4779 128.173 84.7716 132.397 84.0929C135.527 83.5898 137.32 82.6092 139.754 80.0694C142.148 77.5718 142.567 76.7529 141.757 76.153C140.896 75.5148 140.566 75.6657 138.777 77.5185C134.981 81.4497 131.36 80.3275 129.67 74.6953C129.33 73.5608 128.105 68.6582 126.949 63.8006C125.484 57.6453 124.712 54.9162 124.402 54.7956C124.157 54.7007 121.783 54.6227 119.125 54.6227C115.172 54.6227 114.263 54.7012 114.129 55.0549Z" fill="white"/>
</svg>
